<svg width="80" height="135" viewBox="0 0 80 135" fill="none" xmlns="http://www.w3.org/2000/svg">
<g clip-path="url(#clip0_498_5972)">
<path d="M80 0H0V80H80V0Z" fill="white"/>
<path d="M77.1832 2H2V77.1832H77.1832V2Z" fill="#333333"/>
<path d="M22.5113 32.3832L21.1919 28.6911H14.2076L12.8882 32.3853H8.54688L15.9877 14.0503H19.4118L26.8526 32.3832H22.5113ZM17.6861 18.8482L15.3678 25.3738H20.0045L17.6861 18.8482Z" fill="white"/>
<path d="M28.0918 32.3832V14.0503H32.1358V32.3832H28.0918Z" fill="white"/>
<path d="M53.4892 32.3832L51.3321 19.7382L47.7489 32.3832H43.7824L40.197 19.7382L38.04 32.3832H33.5918L37.152 14.0503H41.952L45.7803 26.911L49.5813 14.0503H54.3813L57.9415 32.3832H53.4892Z" fill="white"/>
<path d="M69.7987 32.3832H59.1768V14.0503H69.7987V17.7173H63.2207V21.3613H69.5286V25.0283H63.2207V28.7204H69.7987V32.3832Z" fill="white"/>
</g>
<path d="M25.1688 107.258L19.9398 122H15.4458L10.2168 107.258H14.0388L17.6928 118.388L21.3678 107.258H25.1688ZM28.4757 109.064C27.8457 109.064 27.3277 108.882 26.9217 108.518C26.5297 108.14 26.3337 107.678 26.3337 107.132C26.3337 106.572 26.5297 106.11 26.9217 105.746C27.3277 105.368 27.8457 105.179 28.4757 105.179C29.0917 105.179 29.5957 105.368 29.9877 105.746C30.3937 106.11 30.5967 106.572 30.5967 107.132C30.5967 107.678 30.3937 108.14 29.9877 108.518C29.5957 108.882 29.0917 109.064 28.4757 109.064ZM30.2607 110.282V122H26.6697V110.282H30.2607ZM34.669 109.064C34.039 109.064 33.521 108.882 33.115 108.518C32.723 108.14 32.527 107.678 32.527 107.132C32.527 106.572 32.723 106.11 33.115 105.746C33.521 105.368 34.039 105.179 34.669 105.179C35.285 105.179 35.789 105.368 36.181 105.746C36.587 106.11 36.79 106.572 36.79 107.132C36.79 107.678 36.587 108.14 36.181 108.518C35.789 108.882 35.285 109.064 34.669 109.064ZM36.454 110.282V122H32.863V110.282H36.454ZM55.7514 107.258V122H52.1604V113.159L48.8634 122H45.9654L42.6474 113.138V122H39.0564V107.258H43.2984L47.4354 117.464L51.5304 107.258H55.7514ZM69.3797 115.952C69.3797 116.288 69.3587 116.638 69.3167 117.002H61.1897C61.2457 117.73 61.4767 118.29 61.8827 118.682C62.3027 119.06 62.8137 119.249 63.4157 119.249C64.3117 119.249 64.9347 118.871 65.2847 118.115H69.1067C68.9107 118.885 68.5537 119.578 68.0357 120.194C67.5317 120.81 66.8947 121.293 66.1247 121.643C65.3547 121.993 64.4937 122.168 63.5417 122.168C62.3937 122.168 61.3717 121.923 60.4757 121.433C59.5797 120.943 58.8797 120.243 58.3757 119.333C57.8717 118.423 57.6197 117.359 57.6197 116.141C57.6197 114.923 57.8647 113.859 58.3547 112.949C58.8587 112.039 59.5587 111.339 60.4547 110.849C61.3507 110.359 62.3797 110.114 63.5417 110.114C64.6757 110.114 65.6837 110.352 66.5657 110.828C67.4477 111.304 68.1337 111.983 68.6237 112.865C69.1277 113.747 69.3797 114.776 69.3797 115.952ZM65.7047 115.007C65.7047 114.391 65.4947 113.901 65.0747 113.537C64.6547 113.173 64.1297 112.991 63.4997 112.991C62.8977 112.991 62.3867 113.166 61.9667 113.516C61.5607 113.866 61.3087 114.363 61.2107 115.007H65.7047Z" fill="black"/>
<defs>
<clipPath id="clip0_498_5972">
<rect width="80" height="80" fill="white"/>
</clipPath>
</defs>
</svg>
