<svg width="60" height="60" viewBox="0 0 60 60" fill="none" xmlns="http://www.w3.org/2000/svg">
<g clip-path="url(#clip0_561_911)">
<path d="M60 0H0V60H60V0Z" fill="white"/>
<path d="M58.1941 1.8064H1.80664V58.1938H58.1941V1.8064Z" fill="#333333"/>
<path d="M16.8835 24.2873L15.8939 21.5182H10.6557L9.66618 24.2889H6.41016L11.9908 10.5376H14.5588L20.1395 24.2873H16.8835ZM13.2646 14.136L11.5259 19.0303H15.0033L13.2646 14.136Z" fill="white"/>
<path d="M21.0693 24.2873V10.5376H24.1023V24.2873H21.0693Z" fill="white"/>
<path d="M40.1164 24.2873L38.4986 14.8036L35.8112 24.2873H32.8363L30.1473 14.8036L28.5295 24.2873H25.1934L27.8635 10.5376H31.4635L34.3347 20.1831L37.1855 10.5376H40.7855L43.4557 24.2873H40.1164Z" fill="white"/>
<path d="M52.3493 24.2873H44.3828V10.5376H52.3493V13.2879H47.4158V16.0208H52.1467V18.7711H47.4158V21.5402H52.3493V24.2873Z" fill="white"/>
</g>
<defs>
<clipPath id="clip0_561_911">
<rect width="60" height="60" fill="white"/>
</clipPath>
</defs>
</svg>
